<svg xmlns="http://www.w3.org/2000/svg" width="15.785" height="14.862" viewBox="0 0 15.785 14.862">
  <path id="Path_90007" data-name="Path 90007" d="M267.635,1253.73a44.187,44.187,0,0,1,3.624-4.631,21.708,21.708,0,0,1,3.587-3.38,17.385,17.385,0,0,1,3.212-1.761.444.444,0,0,1,.132-.031.654.654,0,0,1,.479.218c-.1.1-.236.236-.4.4-.308.3-.538.517-.571.548-1.817,1.716-3.352,3.51-3.352,3.51a46.491,46.491,0,0,0-3.174,4.242c-.174.266-.332.524-.332.524-.334.547-.523.926-1.93,3.238-.564.926-1.034,1.7-1.35,2.186h-.325a19.86,19.86,0,0,1-1.453-2.867,15.555,15.555,0,0,0-1.55-2.929,1.22,1.22,0,0,0-.391-.338,1.406,1.406,0,0,0-.958-.1,1.384,1.384,0,0,1,.113-.407,1.991,1.991,0,0,1,1.763-1.026c1.257.006,2.137,1.376,2.534,2A5.567,5.567,0,0,1,267.635,1253.73Z" transform="translate(-262.884 -1243.927)" fill="#fff"/>
</svg>
